# xmcd
#
# Track frame offsets:
#	150
#	23787
#	36120
#	50435
#	66237
#	84962
#	94340
#	107500
#	121042
#	133367
#	146735
#	169230
#	186820
#	214777
#	228845
#
# Disc length: 3179 seconds
#
# Revision: 0
# Processed by: cddbd v1.5.1PL0 Copyright (c) Steve Scherf et al.
# Submitted via: audiograbber 1.83.01
#
DISCID=ce0c690f
DTITLE=Various Artist - Love songs Volume 4
DYEAR=1900
DGENRE=
TTITLE0=Gloria Gaynor - Cant take my eyes of you
TTITLE1=The Searchers - Needles and Pins
TTITLE2=Billy Ocean -  Love Really Hurts Without you
TTITLE3=Frankie Vaughn -  I just called to say i love you
TTITLE4=The Three Degrees - My Simple Heart
TTITLE5=Gladys Knight - Every Beat Of My Heart
TTITLE6=Martha Reeves - It's The Same Old Song
TTITLE7=Ben E. King - Spanish Harlem
TTITLE8=The Drifters - Sweets For My Sweet
TTITLE9=The Righteous Brothers - Hey Girl
TTITLE10=Mary Hopkin - Those Were The Days
TTITLE11=Al Jarreau - Lean On Me
TTITLE12=Solomon Burke - Let Your Love Flow
TTITLE13=Sandy Shaw - You've Been Seeing Her Again
TTITLE14=Barbara Mandrell - Release Me
EXTD=
EXTT0=
EXTT1=
EXTT2=
EXTT3=
EXTT4=
EXTT5=
EXTT6=
EXTT7=
EXTT8=
EXTT9=
EXTT10=
EXTT11=
EXTT12=
EXTT13=
EXTT14=
PLAYORDER=
